# xmcd
#
# Track frame offsets:
# 150
# 23804
# 40893
# 56212
# 73786
# 91360
# 105543
# 121638
# 139898
# 159038
# 177386
# 198783
# 213771
# 230656
# 262734
# 283065
#
# Disc length: 4003 seconds
#
# Revision: 1
# Processed by: cddbd v1.5.2PL0 Copyright (c) Steve Scherf et al.
# Submitted via: CedeCatalogueitor 2.6.0.6 http://personales.ya.com/cdcatalogueitor
#
DISCID=d90fa110
DTITLE=Jose Luis Rodriguez - 30 Mejores Canciones Cd 1
DYEAR=1900
DGENRE=
TTITLE0=Dueño De Nada
TTITLE1=Pavo Real
TTITLE2=Culpable Soy Yo
TTITLE3=Amalia Rosa
TTITLE4=Amalia Rosa
TTITLE5=Hay Muchas Cosas Que Me Gustan De T
TTITLE6=No Te Pareces A Nadie
TTITLE7=De Punta A Punta
TTITLE8=Diosito Santo
TTITLE9=Torero
TTITLE10=Voy A Conquistarte
TTITLE11=Celoso
TTITLE12=Perdidos En Paris
TTITLE13=La Fiesta
TTITLE14=Himno A La Alegria
TTITLE15=Los Hombres No Deben Llorar
EXTD=
EXTT0=
EXTT1=
EXTT2=
EXTT3=
EXTT4=
EXTT5=
EXTT6=
EXTT7=
EXTT8=
EXTT9=
EXTT10=
EXTT11=
EXTT12=
EXTT13=
EXTT14=
EXTT15=
PLAYORDER=
